<svg id="visual" viewBox="0 0 900 600" width="900" height="600" xmlns="http://www.w3.org/2000/svg" xmlns:xlink="http://www.w3.org/1999/xlink" version="1.1"><g stroke-width="1" stroke-linejoin="bevel"><path d="M505 303L529 387L609 331Z" fill="#205a7a" stroke="#205a7a"></path><path d="M529 387L626 400L609 331Z" fill="#112e42" stroke="#112e42"></path><path d="M693 298L613 232L609 331Z" fill="#15384f" stroke="#15384f"></path><path d="M609 331L613 232L505 303Z" fill="#19435d" stroke="#19435d"></path><path d="M422 415L487 464L529 387Z" fill="#081a28" stroke="#081a28"></path><path d="M529 387L571 507L626 400Z" fill="#081a28" stroke="#081a28"></path><path d="M725 361L693 298L609 331Z" fill="#297ea6" stroke="#297ea6"></path><path d="M505 303L422 415L529 387Z" fill="#277297" stroke="#277297"></path><path d="M427 206L395 315L505 303Z" fill="#246688" stroke="#246688"></path><path d="M505 303L395 315L422 415Z" fill="#00101c" stroke="#00101c"></path><path d="M613 232L485 176L505 303Z" fill="#00101c" stroke="#00101c"></path><path d="M487 464L571 507L529 387Z" fill="#277297" stroke="#277297"></path><path d="M626 400L725 361L609 331Z" fill="#1d4e6b" stroke="#1d4e6b"></path><path d="M691 485L725 361L626 400Z" fill="#205a7a" stroke="#205a7a"></path><path d="M485 176L427 206L505 303Z" fill="#112e42" stroke="#112e42"></path><path d="M571 507L691 485L626 400Z" fill="#297ea6" stroke="#297ea6"></path><path d="M691 485L760 403L725 361Z" fill="#1d4e6b" stroke="#1d4e6b"></path><path d="M725 361L770 285L693 298Z" fill="#15384f" stroke="#15384f"></path><path d="M760 403L770 285L725 361Z" fill="#0c2435" stroke="#0c2435"></path><path d="M693 298L738 182L613 232Z" fill="#00101c" stroke="#00101c"></path><path d="M572 94L486 103L485 176Z" fill="#00101c" stroke="#00101c"></path><path d="M422 415L387 486L487 464Z" fill="#15384f" stroke="#15384f"></path><path d="M531 600L568 600L571 507Z" fill="#19435d" stroke="#19435d"></path><path d="M339 468L387 486L422 415Z" fill="#00101c" stroke="#00101c"></path><path d="M770 285L738 182L693 298Z" fill="#205a7a" stroke="#205a7a"></path><path d="M572 94L485 176L613 232Z" fill="#081a28" stroke="#081a28"></path><path d="M485 176L486 103L427 206Z" fill="#081a28" stroke="#081a28"></path><path d="M669 87L572 94L613 232Z" fill="#277297" stroke="#277297"></path><path d="M276 336L313 382L395 315Z" fill="#277297" stroke="#277297"></path><path d="M395 315L313 382L422 415Z" fill="#15384f" stroke="#15384f"></path><path d="M276 336L395 315L290 218Z" fill="#19435d" stroke="#19435d"></path><path d="M313 382L339 468L422 415Z" fill="#0c2435" stroke="#0c2435"></path><path d="M531 600L571 507L487 464Z" fill="#15384f" stroke="#15384f"></path><path d="M571 507L696 600L691 485Z" fill="#277297" stroke="#277297"></path><path d="M531 600L487 464L434 600Z" fill="#1d4e6b" stroke="#1d4e6b"></path><path d="M434 600L487 464L387 486Z" fill="#277297" stroke="#277297"></path><path d="M770 285L794 207L738 182Z" fill="#112e42" stroke="#112e42"></path><path d="M738 182L669 87L613 232Z" fill="#081a28" stroke="#081a28"></path><path d="M900 325L794 207L770 285Z" fill="#1d4e6b" stroke="#1d4e6b"></path><path d="M796 98L669 87L738 182Z" fill="#00101c" stroke="#00101c"></path><path d="M313 382L223 521L339 468Z" fill="#1d4e6b" stroke="#1d4e6b"></path><path d="M290 218L395 315L427 206Z" fill="#15384f" stroke="#15384f"></path><path d="M691 485L804 462L760 403Z" fill="#112e42" stroke="#112e42"></path><path d="M760 403L900 325L770 285Z" fill="#205a7a" stroke="#205a7a"></path><path d="M791 600L804 462L691 485Z" fill="#00101c" stroke="#00101c"></path><path d="M319 102L290 218L427 206Z" fill="#205a7a" stroke="#205a7a"></path><path d="M268 600L434 600L387 486Z" fill="#081a28" stroke="#081a28"></path><path d="M568 600L696 600L571 507Z" fill="#112e42" stroke="#112e42"></path><path d="M532 0L393 78L486 103Z" fill="#19435d" stroke="#19435d"></path><path d="M486 103L393 78L427 206Z" fill="#205a7a" stroke="#205a7a"></path><path d="M532 0L486 103L572 94Z" fill="#19435d" stroke="#19435d"></path><path d="M393 78L319 102L427 206Z" fill="#297ea6" stroke="#297ea6"></path><path d="M669 87L567 0L572 94Z" fill="#297ea6" stroke="#297ea6"></path><path d="M393 78L362 0L319 102Z" fill="#081a28" stroke="#081a28"></path><path d="M567 0L532 0L572 94Z" fill="#081a28" stroke="#081a28"></path><path d="M900 160L796 98L794 207Z" fill="#112e42" stroke="#112e42"></path><path d="M794 207L796 98L738 182Z" fill="#081a28" stroke="#081a28"></path><path d="M669 87L730 0L567 0Z" fill="#1d4e6b" stroke="#1d4e6b"></path><path d="M900 425L900 325L760 403Z" fill="#081a28" stroke="#081a28"></path><path d="M319 102L233 192L290 218Z" fill="#297ea6" stroke="#297ea6"></path><path d="M290 218L205 272L276 336Z" fill="#277297" stroke="#277297"></path><path d="M233 192L205 272L290 218Z" fill="#15384f" stroke="#15384f"></path><path d="M276 336L187 381L313 382Z" fill="#0c2435" stroke="#0c2435"></path><path d="M696 600L791 600L691 485Z" fill="#19435d" stroke="#19435d"></path><path d="M804 462L900 425L760 403Z" fill="#112e42" stroke="#112e42"></path><path d="M900 499L900 425L804 462Z" fill="#081a28" stroke="#081a28"></path><path d="M205 272L187 381L276 336Z" fill="#1d4e6b" stroke="#1d4e6b"></path><path d="M339 468L268 600L387 486Z" fill="#112e42" stroke="#112e42"></path><path d="M187 381L223 521L313 382Z" fill="#297ea6" stroke="#297ea6"></path><path d="M796 98L730 0L669 87Z" fill="#246688" stroke="#246688"></path><path d="M791 600L900 499L804 462Z" fill="#297ea6" stroke="#297ea6"></path><path d="M532 0L362 0L393 78Z" fill="#19435d" stroke="#19435d"></path><path d="M319 102L237 75L233 192Z" fill="#00101c" stroke="#00101c"></path><path d="M223 521L268 600L339 468Z" fill="#19435d" stroke="#19435d"></path><path d="M900 325L900 160L794 207Z" fill="#297ea6" stroke="#297ea6"></path><path d="M796 98L794 0L730 0Z" fill="#297ea6" stroke="#297ea6"></path><path d="M362 0L319 0L319 102Z" fill="#1d4e6b" stroke="#1d4e6b"></path><path d="M319 0L237 75L319 102Z" fill="#1d4e6b" stroke="#1d4e6b"></path><path d="M85 216L135 289L205 272Z" fill="#0c2435" stroke="#0c2435"></path><path d="M205 272L135 289L187 381Z" fill="#1d4e6b" stroke="#1d4e6b"></path><path d="M900 81L794 0L796 98Z" fill="#15384f" stroke="#15384f"></path><path d="M223 521L227 600L268 600Z" fill="#00101c" stroke="#00101c"></path><path d="M136 600L227 600L223 521Z" fill="#205a7a" stroke="#205a7a"></path><path d="M85 216L205 272L233 192Z" fill="#19435d" stroke="#19435d"></path><path d="M187 381L96 502L223 521Z" fill="#081a28" stroke="#081a28"></path><path d="M135 289L126 388L187 381Z" fill="#15384f" stroke="#15384f"></path><path d="M900 160L900 81L796 98Z" fill="#15384f" stroke="#15384f"></path><path d="M791 600L900 600L900 499Z" fill="#081a28" stroke="#081a28"></path><path d="M319 0L222 0L237 75Z" fill="#297ea6" stroke="#297ea6"></path><path d="M105 115L85 216L233 192Z" fill="#205a7a" stroke="#205a7a"></path><path d="M105 115L233 192L237 75Z" fill="#112e42" stroke="#112e42"></path><path d="M135 289L0 310L126 388Z" fill="#297ea6" stroke="#297ea6"></path><path d="M900 81L900 0L794 0Z" fill="#246688" stroke="#246688"></path><path d="M0 467L96 502L126 388Z" fill="#15384f" stroke="#15384f"></path><path d="M126 388L96 502L187 381Z" fill="#297ea6" stroke="#297ea6"></path><path d="M96 502L136 600L223 521Z" fill="#19435d" stroke="#19435d"></path><path d="M222 0L105 115L237 75Z" fill="#112e42" stroke="#112e42"></path><path d="M0 187L0 310L85 216Z" fill="#112e42" stroke="#112e42"></path><path d="M85 216L0 310L135 289Z" fill="#00101c" stroke="#00101c"></path><path d="M96 502L0 600L136 600Z" fill="#112e42" stroke="#112e42"></path><path d="M0 310L0 388L126 388Z" fill="#297ea6" stroke="#297ea6"></path><path d="M0 388L0 467L126 388Z" fill="#15384f" stroke="#15384f"></path><path d="M0 139L0 187L85 216Z" fill="#205a7a" stroke="#205a7a"></path><path d="M222 0L90 0L105 115Z" fill="#19435d" stroke="#19435d"></path><path d="M0 139L85 216L105 115Z" fill="#15384f" stroke="#15384f"></path><path d="M0 0L0 139L105 115Z" fill="#15384f" stroke="#15384f"></path><path d="M0 467L0 600L96 502Z" fill="#1d4e6b" stroke="#1d4e6b"></path><path d="M90 0L0 0L105 115Z" fill="#297ea6" stroke="#297ea6"></path></g></svg>